<mxfile host="app.diagrams.net" modified="2024-03-12T06:59:06.607Z" agent="Mozilla/5.0 (Macintosh; Intel Mac OS X 10_15_7) AppleWebKit/537.36 (KHTML, like Gecko) Chrome/122.0.0.0 Safari/537.36" etag="De-n4xz-ELehTcPfgzfB" version="23.1.7" type="github">
  <diagram name="第 1 页" id="He_s1QGAkXCCAQs0asMY">
    <mxGraphModel dx="1354" dy="1139" grid="0" gridSize="10" guides="1" tooltips="1" connect="1" arrows="1" fold="1" page="0" pageScale="1" pageWidth="200000" pageHeight="200000" math="0" shadow="0">
      <root>
        <mxCell id="0" />
        <mxCell id="1" parent="0" />
        <mxCell id="kWqywYXw-WyIDxYx08NE-3" value="" style="edgeStyle=none;curved=1;rounded=0;orthogonalLoop=1;jettySize=auto;html=1;fontSize=12;startSize=8;endSize=8;" edge="1" parent="1" source="kWqywYXw-WyIDxYx08NE-1" target="kWqywYXw-WyIDxYx08NE-2">
          <mxGeometry relative="1" as="geometry" />
        </mxCell>
        <mxCell id="kWqywYXw-WyIDxYx08NE-1" value="开始" style="rounded=1;whiteSpace=wrap;html=1;" vertex="1" parent="1">
          <mxGeometry x="137" y="-83" width="120" height="60" as="geometry" />
        </mxCell>
        <mxCell id="kWqywYXw-WyIDxYx08NE-5" value="" style="edgeStyle=none;curved=1;rounded=0;orthogonalLoop=1;jettySize=auto;html=1;fontSize=12;startSize=8;endSize=8;" edge="1" parent="1" source="kWqywYXw-WyIDxYx08NE-2" target="kWqywYXw-WyIDxYx08NE-4">
          <mxGeometry relative="1" as="geometry" />
        </mxCell>
        <mxCell id="kWqywYXw-WyIDxYx08NE-8" value="" style="edgeStyle=none;curved=1;rounded=0;orthogonalLoop=1;jettySize=auto;html=1;fontSize=12;startSize=8;endSize=8;" edge="1" parent="1" source="kWqywYXw-WyIDxYx08NE-2" target="kWqywYXw-WyIDxYx08NE-7">
          <mxGeometry relative="1" as="geometry" />
        </mxCell>
        <mxCell id="kWqywYXw-WyIDxYx08NE-2" value="项目是否上架" style="rhombus;whiteSpace=wrap;html=1;rounded=1;" vertex="1" parent="1">
          <mxGeometry x="157" y="87" width="80" height="80" as="geometry" />
        </mxCell>
        <mxCell id="kWqywYXw-WyIDxYx08NE-4" value="结束" style="whiteSpace=wrap;html=1;rounded=1;" vertex="1" parent="1">
          <mxGeometry x="337" y="97" width="120" height="60" as="geometry" />
        </mxCell>
        <mxCell id="kWqywYXw-WyIDxYx08NE-6" value="否" style="text;html=1;align=center;verticalAlign=middle;resizable=0;points=[];autosize=1;strokeColor=none;fillColor=none;fontSize=16;" vertex="1" parent="1">
          <mxGeometry x="269.5" y="95.5" width="34" height="31" as="geometry" />
        </mxCell>
        <mxCell id="kWqywYXw-WyIDxYx08NE-10" value="" style="edgeStyle=none;curved=1;rounded=0;orthogonalLoop=1;jettySize=auto;html=1;fontSize=12;startSize=8;endSize=8;" edge="1" parent="1" source="kWqywYXw-WyIDxYx08NE-7" target="kWqywYXw-WyIDxYx08NE-9">
          <mxGeometry relative="1" as="geometry" />
        </mxCell>
        <mxCell id="kWqywYXw-WyIDxYx08NE-15" value="" style="edgeStyle=none;curved=1;rounded=0;orthogonalLoop=1;jettySize=auto;html=1;fontSize=12;startSize=8;endSize=8;" edge="1" parent="1" source="kWqywYXw-WyIDxYx08NE-7" target="kWqywYXw-WyIDxYx08NE-14">
          <mxGeometry relative="1" as="geometry" />
        </mxCell>
        <mxCell id="kWqywYXw-WyIDxYx08NE-7" value="是否到额度计算时间" style="rhombus;whiteSpace=wrap;html=1;rounded=1;" vertex="1" parent="1">
          <mxGeometry x="157" y="287" width="80" height="80" as="geometry" />
        </mxCell>
        <mxCell id="kWqywYXw-WyIDxYx08NE-9" value="结束" style="whiteSpace=wrap;html=1;rounded=1;" vertex="1" parent="1">
          <mxGeometry x="337" y="297" width="120" height="60" as="geometry" />
        </mxCell>
        <mxCell id="kWqywYXw-WyIDxYx08NE-11" value="否" style="text;html=1;align=center;verticalAlign=middle;resizable=0;points=[];autosize=1;strokeColor=none;fillColor=none;fontSize=16;" vertex="1" parent="1">
          <mxGeometry x="251.5" y="302.5" width="34" height="31" as="geometry" />
        </mxCell>
        <mxCell id="kWqywYXw-WyIDxYx08NE-17" value="" style="edgeStyle=none;curved=1;rounded=0;orthogonalLoop=1;jettySize=auto;html=1;fontSize=12;startSize=8;endSize=8;" edge="1" parent="1" source="kWqywYXw-WyIDxYx08NE-14" target="kWqywYXw-WyIDxYx08NE-16">
          <mxGeometry relative="1" as="geometry" />
        </mxCell>
        <mxCell id="kWqywYXw-WyIDxYx08NE-20" value="" style="edgeStyle=none;curved=1;rounded=0;orthogonalLoop=1;jettySize=auto;html=1;fontSize=12;startSize=8;endSize=8;" edge="1" parent="1" source="kWqywYXw-WyIDxYx08NE-14" target="kWqywYXw-WyIDxYx08NE-19">
          <mxGeometry relative="1" as="geometry" />
        </mxCell>
        <mxCell id="kWqywYXw-WyIDxYx08NE-14" value="判断项目额度是否执行" style="rhombus;whiteSpace=wrap;html=1;rounded=1;" vertex="1" parent="1">
          <mxGeometry x="157" y="487" width="80" height="80" as="geometry" />
        </mxCell>
        <mxCell id="kWqywYXw-WyIDxYx08NE-16" value="结束" style="whiteSpace=wrap;html=1;rounded=1;" vertex="1" parent="1">
          <mxGeometry x="337" y="497" width="120" height="60" as="geometry" />
        </mxCell>
        <mxCell id="kWqywYXw-WyIDxYx08NE-18" value="是" style="text;html=1;align=center;verticalAlign=middle;resizable=0;points=[];autosize=1;strokeColor=none;fillColor=none;fontSize=16;" vertex="1" parent="1">
          <mxGeometry x="252.5" y="492.5" width="34" height="31" as="geometry" />
        </mxCell>
        <mxCell id="kWqywYXw-WyIDxYx08NE-22" value="" style="edgeStyle=none;curved=1;rounded=0;orthogonalLoop=1;jettySize=auto;html=1;fontSize=12;startSize=8;endSize=8;" edge="1" parent="1" source="kWqywYXw-WyIDxYx08NE-19" target="kWqywYXw-WyIDxYx08NE-21">
          <mxGeometry relative="1" as="geometry" />
        </mxCell>
        <mxCell id="kWqywYXw-WyIDxYx08NE-24" value="" style="edgeStyle=none;curved=1;rounded=0;orthogonalLoop=1;jettySize=auto;html=1;fontSize=12;startSize=8;endSize=8;" edge="1" parent="1" source="kWqywYXw-WyIDxYx08NE-19" target="kWqywYXw-WyIDxYx08NE-23">
          <mxGeometry relative="1" as="geometry" />
        </mxCell>
        <mxCell id="kWqywYXw-WyIDxYx08NE-19" value="计算用户额度" style="whiteSpace=wrap;html=1;rounded=1;" vertex="1" parent="1">
          <mxGeometry x="137" y="697" width="120" height="60" as="geometry" />
        </mxCell>
        <mxCell id="kWqywYXw-WyIDxYx08NE-26" value="" style="edgeStyle=none;curved=1;rounded=0;orthogonalLoop=1;jettySize=auto;html=1;fontSize=12;startSize=8;endSize=8;" edge="1" parent="1" source="kWqywYXw-WyIDxYx08NE-21" target="kWqywYXw-WyIDxYx08NE-25">
          <mxGeometry relative="1" as="geometry" />
        </mxCell>
        <mxCell id="kWqywYXw-WyIDxYx08NE-21" value="处理现货" style="whiteSpace=wrap;html=1;rounded=1;" vertex="1" parent="1">
          <mxGeometry x="-103" y="697" width="120" height="60" as="geometry" />
        </mxCell>
        <mxCell id="kWqywYXw-WyIDxYx08NE-34" value="" style="edgeStyle=none;curved=1;rounded=0;orthogonalLoop=1;jettySize=auto;html=1;fontSize=12;startSize=8;endSize=8;" edge="1" parent="1" source="kWqywYXw-WyIDxYx08NE-23" target="kWqywYXw-WyIDxYx08NE-33">
          <mxGeometry relative="1" as="geometry" />
        </mxCell>
        <mxCell id="kWqywYXw-WyIDxYx08NE-23" value="处理合约" style="whiteSpace=wrap;html=1;rounded=1;" vertex="1" parent="1">
          <mxGeometry x="377" y="697" width="120" height="60" as="geometry" />
        </mxCell>
        <mxCell id="kWqywYXw-WyIDxYx08NE-28" value="" style="edgeStyle=none;curved=1;rounded=0;orthogonalLoop=1;jettySize=auto;html=1;fontSize=12;startSize=8;endSize=8;" edge="1" parent="1" source="kWqywYXw-WyIDxYx08NE-25" target="kWqywYXw-WyIDxYx08NE-27">
          <mxGeometry relative="1" as="geometry" />
        </mxCell>
        <mxCell id="kWqywYXw-WyIDxYx08NE-25" value="查询快照所有用户" style="whiteSpace=wrap;html=1;rounded=1;" vertex="1" parent="1">
          <mxGeometry x="-103" y="877" width="120" height="60" as="geometry" />
        </mxCell>
        <mxCell id="kWqywYXw-WyIDxYx08NE-30" value="" style="edgeStyle=none;curved=1;rounded=0;orthogonalLoop=1;jettySize=auto;html=1;fontSize=12;startSize=8;endSize=8;" edge="1" parent="1" source="kWqywYXw-WyIDxYx08NE-27" target="kWqywYXw-WyIDxYx08NE-29">
          <mxGeometry relative="1" as="geometry" />
        </mxCell>
        <mxCell id="kWqywYXw-WyIDxYx08NE-27" value="排除做市、业务账户等" style="whiteSpace=wrap;html=1;rounded=1;" vertex="1" parent="1">
          <mxGeometry x="-103" y="1057" width="120" height="60" as="geometry" />
        </mxCell>
        <mxCell id="kWqywYXw-WyIDxYx08NE-32" value="" style="edgeStyle=none;curved=1;rounded=0;orthogonalLoop=1;jettySize=auto;html=1;fontSize=12;startSize=8;endSize=8;" edge="1" parent="1" source="kWqywYXw-WyIDxYx08NE-29" target="kWqywYXw-WyIDxYx08NE-31">
          <mxGeometry relative="1" as="geometry" />
        </mxCell>
        <mxCell id="kWqywYXw-WyIDxYx08NE-29" value="过滤满足交易次数的用户" style="whiteSpace=wrap;html=1;rounded=1;" vertex="1" parent="1">
          <mxGeometry x="-103" y="1237" width="120" height="60" as="geometry" />
        </mxCell>
        <mxCell id="kWqywYXw-WyIDxYx08NE-42" value="" style="edgeStyle=none;curved=1;rounded=0;orthogonalLoop=1;jettySize=auto;html=1;fontSize=12;startSize=8;endSize=8;" edge="1" parent="1" source="kWqywYXw-WyIDxYx08NE-31" target="kWqywYXw-WyIDxYx08NE-41">
          <mxGeometry relative="1" as="geometry" />
        </mxCell>
        <mxCell id="kWqywYXw-WyIDxYx08NE-31" value="计算现货额度" style="whiteSpace=wrap;html=1;rounded=1;" vertex="1" parent="1">
          <mxGeometry x="-103" y="1417" width="120" height="60" as="geometry" />
        </mxCell>
        <mxCell id="kWqywYXw-WyIDxYx08NE-38" style="edgeStyle=none;curved=1;rounded=0;orthogonalLoop=1;jettySize=auto;html=1;entryX=0.5;entryY=0;entryDx=0;entryDy=0;fontSize=12;startSize=8;endSize=8;" edge="1" parent="1" source="kWqywYXw-WyIDxYx08NE-33" target="kWqywYXw-WyIDxYx08NE-35">
          <mxGeometry relative="1" as="geometry" />
        </mxCell>
        <mxCell id="kWqywYXw-WyIDxYx08NE-33" value="查询快照期用户" style="whiteSpace=wrap;html=1;rounded=1;" vertex="1" parent="1">
          <mxGeometry x="377" y="877" width="120" height="60" as="geometry" />
        </mxCell>
        <mxCell id="kWqywYXw-WyIDxYx08NE-39" style="edgeStyle=none;curved=1;rounded=0;orthogonalLoop=1;jettySize=auto;html=1;entryX=0.5;entryY=0;entryDx=0;entryDy=0;fontSize=12;startSize=8;endSize=8;" edge="1" parent="1" source="kWqywYXw-WyIDxYx08NE-35" target="kWqywYXw-WyIDxYx08NE-36">
          <mxGeometry relative="1" as="geometry" />
        </mxCell>
        <mxCell id="kWqywYXw-WyIDxYx08NE-35" value="排除做市、业务账户等" style="whiteSpace=wrap;html=1;rounded=1;" vertex="1" parent="1">
          <mxGeometry x="377" y="1040" width="120" height="60" as="geometry" />
        </mxCell>
        <mxCell id="kWqywYXw-WyIDxYx08NE-36" value="过滤满足交易次数的用户" style="whiteSpace=wrap;html=1;rounded=1;" vertex="1" parent="1">
          <mxGeometry x="377" y="1218" width="120" height="60" as="geometry" />
        </mxCell>
        <mxCell id="kWqywYXw-WyIDxYx08NE-43" style="edgeStyle=none;curved=1;rounded=0;orthogonalLoop=1;jettySize=auto;html=1;entryX=1;entryY=0.5;entryDx=0;entryDy=0;fontSize=12;startSize=8;endSize=8;" edge="1" parent="1" source="kWqywYXw-WyIDxYx08NE-37" target="kWqywYXw-WyIDxYx08NE-41">
          <mxGeometry relative="1" as="geometry" />
        </mxCell>
        <mxCell id="kWqywYXw-WyIDxYx08NE-37" value="计算合约额度" style="whiteSpace=wrap;html=1;rounded=1;" vertex="1" parent="1">
          <mxGeometry x="386" y="1417" width="120" height="60" as="geometry" />
        </mxCell>
        <mxCell id="kWqywYXw-WyIDxYx08NE-40" style="edgeStyle=none;curved=1;rounded=0;orthogonalLoop=1;jettySize=auto;html=1;entryX=0.425;entryY=-0.008;entryDx=0;entryDy=0;entryPerimeter=0;fontSize=12;startSize=8;endSize=8;" edge="1" parent="1" source="kWqywYXw-WyIDxYx08NE-36" target="kWqywYXw-WyIDxYx08NE-37">
          <mxGeometry relative="1" as="geometry" />
        </mxCell>
        <mxCell id="kWqywYXw-WyIDxYx08NE-45" value="" style="edgeStyle=none;curved=1;rounded=0;orthogonalLoop=1;jettySize=auto;html=1;fontSize=12;startSize=8;endSize=8;" edge="1" parent="1" source="kWqywYXw-WyIDxYx08NE-41" target="kWqywYXw-WyIDxYx08NE-44">
          <mxGeometry relative="1" as="geometry" />
        </mxCell>
        <mxCell id="kWqywYXw-WyIDxYx08NE-41" value="计算用户额度" style="whiteSpace=wrap;html=1;rounded=1;" vertex="1" parent="1">
          <mxGeometry x="137" y="1417" width="120" height="60" as="geometry" />
        </mxCell>
        <mxCell id="kWqywYXw-WyIDxYx08NE-47" value="" style="edgeStyle=none;curved=1;rounded=0;orthogonalLoop=1;jettySize=auto;html=1;fontSize=12;startSize=8;endSize=8;" edge="1" parent="1" source="kWqywYXw-WyIDxYx08NE-44" target="kWqywYXw-WyIDxYx08NE-46">
          <mxGeometry relative="1" as="geometry" />
        </mxCell>
        <mxCell id="kWqywYXw-WyIDxYx08NE-44" value="计算全局额度" style="whiteSpace=wrap;html=1;rounded=1;" vertex="1" parent="1">
          <mxGeometry x="137" y="1597" width="120" height="60" as="geometry" />
        </mxCell>
        <mxCell id="kWqywYXw-WyIDxYx08NE-49" value="" style="edgeStyle=none;curved=1;rounded=0;orthogonalLoop=1;jettySize=auto;html=1;fontSize=12;startSize=8;endSize=8;" edge="1" parent="1" source="kWqywYXw-WyIDxYx08NE-46" target="kWqywYXw-WyIDxYx08NE-48">
          <mxGeometry relative="1" as="geometry" />
        </mxCell>
        <mxCell id="kWqywYXw-WyIDxYx08NE-46" value="计算用户申领量" style="whiteSpace=wrap;html=1;rounded=1;" vertex="1" parent="1">
          <mxGeometry x="137" y="1777" width="120" height="60" as="geometry" />
        </mxCell>
        <mxCell id="kWqywYXw-WyIDxYx08NE-48" value="结束" style="whiteSpace=wrap;html=1;rounded=1;" vertex="1" parent="1">
          <mxGeometry x="137" y="1957" width="120" height="60" as="geometry" />
        </mxCell>
      </root>
    </mxGraphModel>
  </diagram>
</mxfile>
